<svg xmlns="http://www.w3.org/2000/svg" xmlns:xlink="http://www.w3.org/1999/xlink" width="1920" zoomAndPan="magnify" viewBox="0 0 1440 809.999993" height="1080" preserveAspectRatio="xMidYMid meet" version="1.0"><defs><clipPath id="1be5065f46"><path d="M 562.402344 81 L 877.597656 81 L 877.597656 729 L 562.402344 729 Z M 562.402344 81 " clip-rule="nonzero"/></clipPath><clipPath id="8d83f3d62d"><path d="M 577.402344 81 L 862.597656 81 C 866.574219 81 870.390625 82.582031 873.203125 85.394531 C 876.015625 88.207031 877.597656 92.023438 877.597656 96 L 877.597656 714 C 877.597656 717.976562 876.015625 721.792969 873.203125 724.605469 C 870.390625 727.417969 866.574219 729 862.597656 729 L 577.402344 729 C 573.425781 729 569.609375 727.417969 566.796875 724.605469 C 563.984375 721.792969 562.402344 717.976562 562.402344 714 L 562.402344 96 C 562.402344 92.023438 563.984375 88.207031 566.796875 85.394531 C 569.609375 82.582031 573.425781 81 577.402344 81 Z M 577.402344 81 " clip-rule="nonzero"/></clipPath><clipPath id="9cada33157"><path d="M 0.402344 0 L 315.597656 0 L 315.597656 648 L 0.402344 648 Z M 0.402344 0 " clip-rule="nonzero"/></clipPath><clipPath id="992e5288ac"><path d="M 15.402344 0 L 300.597656 0 C 304.574219 0 308.390625 1.582031 311.203125 4.394531 C 314.015625 7.207031 315.597656 11.023438 315.597656 15 L 315.597656 633 C 315.597656 636.976562 314.015625 640.792969 311.203125 643.605469 C 308.390625 646.417969 304.574219 648 300.597656 648 L 15.402344 648 C 11.425781 648 7.609375 646.417969 4.796875 643.605469 C 1.984375 640.792969 0.402344 636.976562 0.402344 633 L 0.402344 15 C 0.402344 11.023438 1.984375 7.207031 4.796875 4.394531 C 7.609375 1.582031 11.425781 0 15.402344 0 Z M 15.402344 0 " clip-rule="nonzero"/></clipPath><clipPath id="19c7bbff03"><rect x="0" width="316" y="0" height="648"/></clipPath></defs><g clip-path="url(#1be5065f46)"><g clip-path="url(#8d83f3d62d)"><g transform="matrix(1, 0, 0, 1, 562, 81)"><g clip-path="url(#19c7bbff03)"><g clip-path="url(#9cada33157)"><g clip-path="url(#992e5288ac)"><path fill="#ffffff" d="M 0.402344 0 L 315.597656 0 L 315.597656 647.625 L 0.402344 647.625 Z M 0.402344 0 " fill-opacity="1" fill-rule="nonzero"/></g></g></g></g></g></g></svg>