<svg xmlns="http://www.w3.org/2000/svg" xmlns:xlink="http://www.w3.org/1999/xlink" width="1920" zoomAndPan="magnify" viewBox="0 0 1440 809.999993" height="1080" preserveAspectRatio="xMidYMid meet" version="1.0"><defs><clipPath id="5f0680b37c"><path d="M 568.433594 81 L 871.566406 81 L 871.566406 729 L 568.433594 729 Z M 568.433594 81 " clip-rule="nonzero"/></clipPath><clipPath id="65736b93c0"><path d="M 621.683594 81 L 818.316406 81 C 847.722656 81 871.566406 104.839844 871.566406 134.25 L 871.566406 675.75 C 871.566406 705.160156 847.722656 729 818.316406 729 L 621.683594 729 C 592.277344 729 568.433594 705.160156 568.433594 675.75 L 568.433594 134.25 C 568.433594 104.839844 592.277344 81 621.683594 81 Z M 621.683594 81 " clip-rule="nonzero"/></clipPath><clipPath id="f1baba018b"><path d="M 0.433594 0 L 303.566406 0 L 303.566406 648 L 0.433594 648 Z M 0.433594 0 " clip-rule="nonzero"/></clipPath><clipPath id="3cee474861"><path d="M 53.683594 0 L 250.316406 0 C 279.722656 0 303.566406 23.839844 303.566406 53.25 L 303.566406 594.75 C 303.566406 624.160156 279.722656 648 250.316406 648 L 53.683594 648 C 24.277344 648 0.433594 624.160156 0.433594 594.75 L 0.433594 53.25 C 0.433594 23.839844 24.277344 0 53.683594 0 Z M 53.683594 0 " clip-rule="nonzero"/></clipPath><clipPath id="16adcc4a06"><rect x="0" width="304" y="0" height="648"/></clipPath></defs><g clip-path="url(#5f0680b37c)"><g clip-path="url(#65736b93c0)"><g transform="matrix(1, 0, 0, 1, 568, 81)"><g clip-path="url(#16adcc4a06)"><g clip-path="url(#f1baba018b)"><g clip-path="url(#3cee474861)"><path fill="#ffffff" d="M 0.433594 0 L 303.566406 0 L 303.566406 647.703125 L 0.433594 647.703125 Z M 0.433594 0 " fill-opacity="1" fill-rule="nonzero"/></g></g></g></g></g></g></svg>